# Hierarchical Translation and Rotation (.htr) file
# Generated by EVaRT
[Header]
FileType htr
DataType HTRS
FileVersion 1
NumSegments 23
NumFrames 5
DataFrameRate 120
EulerRotationOrder ZYX
CalibrationUnits mm
RotationUnits Degrees
GlobalAxisofGravity Y
BoneLengthAxis Y
ScaleFactor 1
[SegmentNames&Hierarchy]
#CHILD            PARENT
DaveRoot          GLOBAL
Spine1            DaveRoot
Spine2            Spine1
Spine3            Spine2
Spine4            Spine3
Neck              Spine4
Head              Neck
LClavicle         Spine4
LUpperArm         LClavicle
LLowerArm         LUpperArm
LHand             LLowerArm
RClavicle         Spine4
RUpperArm         RClavicle
RLowerArm         RUpperArm
RHand             RLowerArm
RUpperLeg         DaveRoot
RLowerLeg         RUpperLeg
RFoot             RLowerLeg
RToes             RFoot
LUpperLeg         DaveRoot
LLowerLeg         LUpperLeg
LFoot             LLowerLeg
LToes             LFoot
[BasePosition]
#SegmentName      Tx   Ty   Tz   Rx   Ry   Rz   BoneLength
DaveRoot          9999999.000000	9999999.000000	9999999.000000	9999999.000000	9999999.000000	9999999.000000	9999999.000000
Spine1            9999999.000000	9999999.000000	9999999.000000	9999999.000000	9999999.000000	9999999.000000	9999999.000000
Spine2            9999999.000000	9999999.000000	9999999.000000	9999999.000000	9999999.000000	9999999.000000	9999999.000000
Spine3            9999999.000000	9999999.000000	9999999.000000	9999999.000000	9999999.000000	9999999.000000	9999999.000000
Spine4            9999999.000000	9999999.000000	9999999.000000	9999999.000000	9999999.000000	9999999.000000	9999999.000000
Neck              9999999.000000	9999999.000000	9999999.000000	9999999.000000	9999999.000000	9999999.000000	9999999.000000
Head              9999999.000000	9999999.000000	9999999.000000	9999999.000000	9999999.000000	9999999.000000	9999999.000000
LClavicle         9999999.000000	9999999.000000	9999999.000000	9999999.000000	9999999.000000	9999999.000000	9999999.000000
LUpperArm         9999999.000000	9999999.000000	9999999.000000	9999999.000000	9999999.000000	9999999.000000	9999999.000000
LLowerArm         9999999.000000	9999999.000000	9999999.000000	9999999.000000	9999999.000000	9999999.000000	9999999.000000
LHand             9999999.000000	9999999.000000	9999999.000000	9999999.000000	9999999.000000	9999999.000000	9999999.000000
RClavicle         9999999.000000	9999999.000000	9999999.000000	9999999.000000	9999999.000000	9999999.000000	9999999.000000
RUpperArm         9999999.000000	9999999.000000	9999999.000000	9999999.000000	9999999.000000	9999999.000000	9999999.000000
RLowerArm         9999999.000000	9999999.000000	9999999.000000	9999999.000000	9999999.000000	9999999.000000	9999999.000000
RHand             9999999.000000	9999999.000000	9999999.000000	9999999.000000	9999999.000000	9999999.000000	9999999.000000
RUpperLeg         9999999.000000	9999999.000000	9999999.000000	9999999.000000	9999999.000000	9999999.000000	9999999.000000
RLowerLeg         9999999.000000	9999999.000000	9999999.000000	9999999.000000	9999999.000000	9999999.000000	9999999.000000
RFoot             9999999.000000	9999999.000000	9999999.000000	9999999.000000	9999999.000000	9999999.000000	9999999.000000
RToes             9999999.000000	9999999.000000	9999999.000000	9999999.000000	9999999.000000	9999999.000000	9999999.000000
LUpperLeg         9999999.000000	9999999.000000	9999999.000000	9999999.000000	9999999.000000	9999999.000000	9999999.000000
LLowerLeg         9999999.000000	9999999.000000	9999999.000000	9999999.000000	9999999.000000	9999999.000000	9999999.000000
LFoot             9999999.000000	9999999.000000	9999999.000000	9999999.000000	9999999.000000	9999999.000000	9999999.000000
LToes             9999999.000000	9999999.000000	9999999.000000	9999999.000000	9999999.000000	9999999.000000	9999999.000000
#Beginning of Data.
[DaveRoot]
#Fr	Tx	Ty	Tz	Rx	Ry	Rz	SF
366	-10000101.715865	-9999013.366667	-10000193.659302	-21.741924	-81.898777	45.900592	0.000010	
367	-10000127.592640	-9999006.937417	-10000194.891310	-18.230435	-81.118835	42.158459	0.000010	
368	-10000154.085074	-9999000.148758	-10000195.633519	-16.596901	-80.095344	40.020210	0.000010	
369	-10000179.891889	-9998994.025726	-10000196.170220	-15.279920	-79.544222	38.692060	0.000010	
370	-10000205.390105	-9998987.979929	-10000196.146521	-13.913093	-78.698296	36.982966	0.000010	
[Spine1]
#Fr	Tx	Ty	Tz	Rx	Ry	Rz	SF
366	-9999999.000000	-9999899.000000	-9999999.000000	-0.706404	3.201436	0.756252	0.000010	
367	-9999999.000000	-9999899.000000	-9999999.000000	-0.742549	3.162089	0.742477	0.000010	
368	-9999999.000000	-9999899.000000	-9999999.000000	-0.556889	3.004923	0.592328	0.000010	
369	-9999999.000000	-9999899.000000	-9999999.000000	-0.615339	3.099566	0.532444	0.000010	
370	-9999999.000000	-9999899.000000	-9999999.000000	-0.498040	2.936703	0.453231	0.000010	
[Spine2]
#Fr	Tx	Ty	Tz	Rx	Ry	Rz	SF
366	-9999999.000000	-9999899.000000	-9999999.000000	-0.706404	3.201436	0.756252	0.000010	
367	-9999999.000000	-9999899.000000	-9999999.000000	-0.742549	3.162089	0.742477	0.000010	
368	-9999999.000000	-9999899.000000	-9999999.000000	-0.556889	3.004923	0.592328	0.000010	
369	-9999999.000000	-9999899.000000	-9999999.000000	-0.615339	3.099566	0.532444	0.000010	
370	-9999999.000000	-9999899.000000	-9999999.000000	-0.498040	2.936703	0.453231	0.000010	
[Spine3]
#Fr	Tx	Ty	Tz	Rx	Ry	Rz	SF
366	-9999999.000000	-9999899.000000	-9999999.000000	-0.706404	3.201436	0.756252	0.000010	
367	-9999999.000000	-9999899.000000	-9999999.000000	-0.742549	3.162089	0.742477	0.000010	
368	-9999999.000000	-9999899.000000	-9999999.000000	-0.556889	3.004923	0.592328	0.000010	
369	-9999999.000000	-9999899.000000	-9999999.000000	-0.615339	3.099566	0.532444	0.000010	
370	-9999999.000000	-9999899.000000	-9999999.000000	-0.498040	2.936703	0.453231	0.000010	
[Spine4]
#Fr	Tx	Ty	Tz	Rx	Ry	Rz	SF
366	-9999999.000000	-9999899.000000	-9999999.000000	-0.706404	3.201436	0.756252	0.000010	
367	-9999999.000000	-9999899.000000	-9999999.000000	-0.742549	3.162089	0.742477	0.000010	
368	-9999999.000000	-9999899.000000	-9999999.000000	-0.556889	3.004923	0.592328	0.000010	
369	-9999999.000000	-9999899.000000	-9999999.000000	-0.615339	3.099566	0.532444	0.000010	
370	-9999999.000000	-9999899.000000	-9999999.000000	-0.498040	2.936703	0.453231	0.000010	
[Neck]
#Fr	Tx	Ty	Tz	Rx	Ry	Rz	SF
366	-9999999.000000	-9999899.000000	-9999999.000000	-13.185512	-13.499460	-5.401033	0.000008	
367	-9999999.000000	-9999899.000000	-9999999.000000	-12.892600	-13.782784	-5.469312	0.000008	
368	-9999999.000000	-9999899.000000	-9999999.000000	-13.365428	-14.171742	-5.223100	0.000008	
369	-9999999.000000	-9999899.000000	-9999999.000000	-13.358501	-14.726477	-5.208667	0.000008	
370	-9999999.000000	-9999899.000000	-9999999.000000	-13.570967	-14.894468	-4.975132	0.000008	
[Head]
#Fr	Tx	Ty	Tz	Rx	Ry	Rz	SF
366	-9999999.000000	-9999919.000000	-9999999.000000	-13.185512	-13.499460	-5.401033	0.000020	
367	-9999999.000000	-9999919.000000	-9999999.000000	-12.892600	-13.782784	-5.469312	0.000020	
368	-9999999.000000	-9999919.000000	-9999999.000000	-13.365428	-14.171742	-5.223100	0.000020	
369	-9999999.000000	-9999919.000000	-9999999.000000	-13.358501	-14.726477	-5.208667	0.000020	
370	-9999999.000000	-9999919.000000	-9999999.000000	-13.570967	-14.894468	-4.975132	0.000020	
[LClavicle]
#Fr	Tx	Ty	Tz	Rx	Ry	Rz	SF
366	-9999999.000000	-9999899.000000	-9999999.000000	6.517032	0.983561	-7.023649	0.000020	
367	-9999999.000000	-9999899.000000	-9999999.000000	7.257377	1.102496	-7.070050	0.000020	
368	-9999999.000000	-9999899.000000	-9999999.000000	7.229292	1.032300	-6.561686	0.000020	
369	-9999999.000000	-9999899.000000	-9999999.000000	6.992284	0.976423	-6.388312	0.000020	
370	-9999999.000000	-9999899.000000	-9999999.000000	5.984162	0.879953	-6.813039	0.000020	
[LUpperArm]
#Fr	Tx	Ty	Tz	Rx	Ry	Rz	SF
366	-9999999.000000	-9999799.000000	-9999999.000000	2.398008	17.890566	-64.957145	0.000030	
367	-9999999.000000	-9999799.000000	-9999999.000000	0.948879	17.135577	-65.364571	0.000030	
368	-9999999.000000	-9999799.000000	-9999999.000000	0.199184	16.179940	-66.180330	0.000030	
369	-9999999.000000	-9999799.000000	-9999999.000000	-0.289058	16.389261	-66.756609	0.000030	
370	-9999999.000000	-9999799.000000	-9999999.000000	0.336691	16.273319	-66.244205	0.000030	
[LLowerArm]
#Fr	Tx	Ty	Tz	Rx	Ry	Rz	SF
366	-9999999.000000	-9999699.000000	-9999999.000000	108.464157	0.000000	0.000000	0.000020	
367	-9999999.000000	-9999699.000000	-9999999.000000	110.019525	-0.000000	0.000000	0.000020	
368	-9999999.000000	-9999699.000000	-9999999.000000	110.871730	0.000000	0.000000	0.000020	
369	-9999999.000000	-9999699.000000	-9999999.000000	111.339684	0.000000	0.000000	0.000020	
370	-9999999.000000	-9999699.000000	-9999999.000000	111.887276	0.000000	0.000000	0.000020	
[LHand]
#Fr	Tx	Ty	Tz	Rx	Ry	Rz	SF
366	-9999999.000000	-9999799.000000	-9999999.000000	8.163486	0.000000	-0.000000	0.000012	
367	-9999999.000000	-9999799.000000	-9999999.000000	7.961474	0.000000	-0.000000	0.000012	
368	-9999999.000000	-9999799.000000	-9999999.000000	7.194743	0.000000	-0.000000	0.000012	
369	-9999999.000000	-9999799.000000	-9999999.000000	6.979021	0.000000	-0.000000	0.000012	
370	-9999999.000000	-9999799.000000	-9999999.000000	7.423838	0.000000	-0.000000	0.000012	
[RClavicle]
#Fr	Tx	Ty	Tz	Rx	Ry	Rz	SF
366	-9999999.000000	-9999899.000000	-9999999.000000	1.974617	0.096058	-2.585861	0.000020	
367	-9999999.000000	-9999899.000000	-9999999.000000	1.945285	0.100721	-2.764734	0.000020	
368	-9999999.000000	-9999899.000000	-9999999.000000	2.037230	0.071259	-1.804366	0.000020	
369	-9999999.000000	-9999899.000000	-9999999.000000	1.482474	0.048603	-1.679282	0.000020	
370	-9999999.000000	-9999899.000000	-9999999.000000	1.298840	0.033184	-1.265193	0.000020	
[RUpperArm]
#Fr	Tx	Ty	Tz	Rx	Ry	Rz	SF
366	-9999999.000000	-9999799.000000	-9999999.000000	144.956131	-18.162969	-120.221741	0.000030	
367	-9999999.000000	-9999799.000000	-9999999.000000	145.549799	-17.610662	-120.327755	0.000030	
368	-9999999.000000	-9999799.000000	-9999999.000000	145.336890	-17.359360	-121.218723	0.000030	
369	-9999999.000000	-9999799.000000	-9999999.000000	145.737571	-16.820861	-121.303329	0.000030	
370	-9999999.000000	-9999799.000000	-9999999.000000	145.348769	-16.616925	-121.205058	0.000030	
[RLowerArm]
#Fr	Tx	Ty	Tz	Rx	Ry	Rz	SF
366	-9999999.000000	-9999699.000000	-9999999.000000	-105.166940	0.000000	0.000000	0.000020	
367	-9999999.000000	-9999699.000000	-9999999.000000	-103.947755	0.000000	0.000000	0.000020	
368	-9999999.000000	-9999699.000000	-9999999.000000	-102.554021	0.000000	0.000000	0.000020	
369	-9999999.000000	-9999699.000000	-9999999.000000	-101.415345	0.000000	0.000000	0.000020	
370	-9999999.000000	-9999699.000000	-9999999.000000	-99.456985	0.000000	0.000000	0.000020	
[RHand]
#Fr	Tx	Ty	Tz	Rx	Ry	Rz	SF
366	-9999999.000000	-9999799.000000	-9999999.000000	-92.237572	53.295035	-114.869046	0.000012	
367	-9999999.000000	-9999799.000000	-9999999.000000	-91.346244	53.871532	-113.631943	0.000012	
368	-9999999.000000	-9999799.000000	-9999999.000000	-92.123050	54.105493	-113.722258	0.000012	
369	-9999999.000000	-9999799.000000	-9999999.000000	-92.122394	54.791787	-113.170573	0.000012	
370	-9999999.000000	-9999799.000000	-9999999.000000	-93.372987	54.794664	-115.682208	0.000012	
[RUpperLeg]
#Fr	Tx	Ty	Tz	Rx	Ry	Rz	SF
366	-10000114.911102	-10000009.000000	-9999967.941715	-0.519203	-1.920791	7.794013	0.000053	
367	-10000114.911102	-10000009.000000	-9999967.941715	-2.338293	-0.267306	7.396145	0.000053	
368	-10000114.911102	-10000009.000000	-9999967.941715	-4.212279	1.342286	6.662877	0.000053	
369	-10000114.911102	-10000009.000000	-9999967.941715	-5.535483	2.022991	6.317509	0.000053	
370	-10000114.911102	-10000009.000000	-9999967.941715	-6.990216	3.498334	5.612661	0.000053	
[RLowerLeg]
#Fr	Tx	Ty	Tz	Rx	Ry	Rz	SF
366	-9999999.000000	-9999469.000000	-9999999.000000	-16.235211	-0.000000	0.000000	0.000046	
367	-9999999.000000	-9999469.000000	-9999999.000000	-14.696438	-0.000000	0.000000	0.000046	
368	-9999999.000000	-9999469.000000	-9999999.000000	-13.441101	-0.000000	0.000000	0.000046	
369	-9999999.000000	-9999469.000000	-9999999.000000	-12.454975	-0.000000	0.000000	0.000046	
370	-9999999.000000	-9999469.000000	-9999999.000000	-11.634460	-0.000000	0.000000	0.000046	
[RFoot]
#Fr	Tx	Ty	Tz	Rx	Ry	Rz	SF
366	-9999999.000000	-9999539.000000	-9999999.000000	1.478377	-6.967180	-5.654455	0.000013	
367	-9999999.000000	-9999539.000000	-9999999.000000	-2.825543	-6.981806	-5.243831	0.000013	
368	-9999999.000000	-9999539.000000	-9999999.000000	-7.262168	-8.276656	-4.678405	0.000013	
369	-9999999.000000	-9999539.000000	-9999999.000000	-11.824812	-7.445966	-4.171713	0.000013	
370	-9999999.000000	-9999539.000000	-9999999.000000	-15.711096	-6.882094	-3.730748	0.000013	
[RToes]
#Fr	Tx	Ty	Tz	Rx	Ry	Rz	SF
366	-9999999.000000	-9999869.000000	-9999999.000000	23.581887	0.000000	-0.000000	0.000010	
367	-9999999.000000	-9999869.000000	-9999999.000000	26.466577	0.000000	-0.000000	0.000010	
368	-9999999.000000	-9999869.000000	-9999999.000000	29.777079	0.000000	-0.000000	0.000010	
369	-9999999.000000	-9999869.000000	-9999999.000000	31.347128	-0.000000	-0.000000	0.000010	
370	-9999999.000000	-9999869.000000	-9999999.000000	31.579906	0.000000	-0.000000	0.000010	
[LUpperLeg]
#Fr	Tx	Ty	Tz	Rx	Ry	Rz	SF
366	-9999883.088898	-10000009.000000	-9999967.941715	44.877829	5.622001	4.343694	0.000053	
367	-9999883.088898	-10000009.000000	-9999967.941715	45.090343	6.864555	4.319913	0.000053	
368	-9999883.088898	-10000009.000000	-9999967.941715	44.671304	8.374531	4.043568	0.000053	
369	-9999883.088898	-10000009.000000	-9999967.941715	44.530745	9.083922	4.030892	0.000053	
370	-9999883.088898	-10000009.000000	-9999967.941715	43.955605	10.364693	3.861123	0.000053	
[LLowerLeg]
#Fr	Tx	Ty	Tz	Rx	Ry	Rz	SF
366	-9999999.000000	-9999469.000000	-9999999.000000	-72.210122	-0.000000	-0.000000	0.000046	
367	-9999999.000000	-9999469.000000	-9999999.000000	-68.496487	-0.000000	-0.000000	0.000046	
368	-9999999.000000	-9999469.000000	-9999999.000000	-64.307414	0.000000	-0.000000	0.000046	
369	-9999999.000000	-9999469.000000	-9999999.000000	-60.059462	0.000000	0.000000	0.000046	
370	-9999999.000000	-9999469.000000	-9999999.000000	-55.359005	0.000000	-0.000000	0.000046	
[LFoot]
#Fr	Tx	Ty	Tz	Rx	Ry	Rz	SF
366	-9999999.000000	-9999539.000000	-9999999.000000	-9.009290	9.340907	6.361085	0.000013	
367	-9999999.000000	-9999539.000000	-9999999.000000	-9.272346	9.945539	7.505045	0.000013	
368	-9999999.000000	-9999539.000000	-9999999.000000	-9.843491	11.272280	9.021506	0.000013	
369	-9999999.000000	-9999539.000000	-9999999.000000	-9.646834	9.868235	9.705255	0.000013	
370	-9999999.000000	-9999539.000000	-9999999.000000	-9.744562	10.468541	10.564416	0.000013	
[LToes]
#Fr	Tx	Ty	Tz	Rx	Ry	Rz	SF
366	-9999999.000000	-9999869.000000	-9999999.000000	8.248651	0.000000	-0.000000	0.000010	
367	-9999999.000000	-9999869.000000	-9999999.000000	8.631061	0.000000	-0.000000	0.000010	
368	-9999999.000000	-9999869.000000	-9999999.000000	9.755418	0.000000	-0.000000	0.000010	
369	-9999999.000000	-9999869.000000	-9999999.000000	8.505104	0.000000	-0.000000	0.000010	
370	-9999999.000000	-9999869.000000	-9999999.000000	9.175560	0.000000	-0.000000	0.000010	
